<?xml version="1.0" encoding="utf-8"?>
<!-- Generator: Adobe Illustrator 18.0.0, SVG Export Plug-In . SVG Version: 6.00 Build 0)  -->
<!DOCTYPE svg PUBLIC "-//W3C//DTD SVG 1.1//EN" "http://www.w3.org/Graphics/SVG/1.1/DTD/svg11.dtd">
<svg version="1.1" id="Layer_1" xmlns="http://www.w3.org/2000/svg" xmlns:xlink="http://www.w3.org/1999/xlink" x="0px" y="0px"
	 viewBox="0 0 400 400" enable-background="new 0 0 400 400" xml:space="preserve">
<polygon display="none" fill="#231F20" points="261.2,259.3 138.8,259.3 138.8,107.5 261.2,108.5 "/>
<g>
	<path fill="#FFFFFF" d="M195.1,319c-7,0-12.5-5.5-12.5-12.1V60.9c0-6.6,5.5-12.1,12.5-12.1c6.6,0,12.1,5.5,12.1,12.1v245.9
		C207.2,313.4,201.7,319,195.1,319z"/>
	<path fill="#FFFFFF" d="M325.9,110.2c0,6.6-5.5,12.1-12.5,12.1h-58.7v24.6h35.9c7,0,12.5,5.5,12.5,12.5c0,6.6-5.5,12.1-12.5,12.1
		h-48.1c-7,0-12.5-5.5-12.5-12.1v-49.3c0-7,5.5-12.1,12.5-12.1h70.9C320.4,98.1,325.9,103.2,325.9,110.2z"/>
	<path fill="#FFFFFF" d="M303.1,208.3c0,7-5.5,12.5-12.5,12.5h-35.9v71.5h58.7c7,0,12.5,5.5,12.5,12.5c0,6.6-5.5,12.1-12.5,12.1
		h-70.9c-7,0-12.5-5.5-12.5-12.1v-96.5c0-6.6,5.5-12.1,12.5-12.1h48.1C297.6,196.2,303.1,201.7,303.1,208.3z"/>
	<path fill="#FFFFFF" d="M136.3,60.9c0-6.6,5.5-12.1,12.1-12.1c6.6,0,12.2,5.5,12.2,12.1v172c0,20.9-16.6,36.8-37.1,36.8H87.1
		c-7,0-12.5-5.5-12.5-12.1c0-7,5.5-12.5,12.5-12.5h36.3c7,0,12.9-4.8,12.9-12.1V60.9z"/>
	<path fill="#FFFFFF" d="M84.3,319c-5.3,0-9.7-5.5-9.7-12.5c0-6.6,4.4-12.1,9.7-12.1h66.6c5.3,0,9.7,5.5,9.7,12.1
		c0,7-4.4,12.5-9.7,12.5"/>
	<line fill="#FFFFFF" x1="242.5" y1="294.3" x2="309.1" y2="294.3"/>
</g>
<g display="none">
	<rect x="145.3" y="192.6" display="inline" fill="#231F20" width="33.1" height="41.1"/>
	<rect x="204.3" y="100.5" display="inline" fill="#231F20" width="17.8" height="5.1"/>
	<rect x="215.5" y="110.7" display="inline" fill="#231F20" width="6.6" height="5.1"/>
	<rect x="215.5" y="120.8" display="inline" fill="#231F20" width="6.6" height="5.1"/>
	<polygon display="inline" fill="#231F20" points="204.1,125.9 210.6,125.9 210.6,118.3 204.1,120.8 	"/>
	<rect x="210.6" y="100.5" display="inline" fill="#231F20" width="5.1" height="25.4"/>
	<polygon display="inline" fill="#FFFFFF" points="195.6,125.9 199.4,125.9 199.4,120.8 195.6,120.8 195.6,115.7 199.4,115.7 
		199.4,110.7 195.6,110.7 195.6,105.6 199.4,105.6 199.4,100.5 195.6,100.5 193,100.5 190.6,100.5 186.8,100.5 186.8,105.6 
		190.6,105.6 190.6,119.5 186.5,120.8 186.5,125.9 190.6,125.9 193,125.9 	"/>
	<path display="inline" fill="none" stroke="#FFFFFF" stroke-miterlimit="10" d="M222.1,227.6v15.5c0,1.8-1.5,3.2-3.2,3.2H218
		c-1.8,0-3.2-1.5-3.2-3.2"/>
	<text transform="matrix(1 0 0 1 310.7435 217.9734)" display="inline" font-family="'MyriadPro-Regular'" font-size="3.2449">je</text>
	<text transform="matrix(1 0 0 1 303.4769 208.2556)" display="inline" font-family="'Lovelo-LineBold'" font-size="3.2449">JE I</text>
	<path display="inline" d="M310,213.1c0-0.1,0-0.1,0.1-0.1h0.4c0.3,0,0.5-0.2,0.5-0.5v-1.5c0-0.1,0-0.1,0.1-0.1c0.1,0,0.1,0,0.1,0.1
		v1.5c0,0.4-0.3,0.8-0.7,0.8h-0.4C310.1,213.2,310,213.2,310,213.1z M310.7,210.9c0-0.1,0-0.1,0.1-0.1c0.1,0,0.1,0,0.1,0.1v1.5
		c0,0.2-0.1,0.3-0.3,0.3h-0.4c-0.1,0-0.1,0-0.1-0.1c0-0.1,0-0.1,0.1-0.1h0.4c0.1,0,0.1,0,0.1-0.1V210.9z"/>
	<path display="inline" d="M313.2,213.1c0,0.1,0,0.1-0.1,0.1h-1.1c-0.1,0-0.1,0-0.1-0.1v-2.2c0-0.1,0-0.1,0.1-0.1h1.1
		c0.1,0,0.1,0,0.1,0.1c0,0.1,0,0.1-0.1,0.1h-1v1.9h1C313.1,213,313.2,213,313.2,213.1z M313.2,211.4c0,0.1,0,0.1-0.1,0.1h-0.6v0.2
		h0.4c0.1,0,0.1,0,0.1,0.1c0,0.1,0,0.1-0.1,0.1h-0.5c-0.1,0-0.1,0-0.1-0.1v-0.4c0-0.1,0-0.1,0.1-0.1h0.7
		C313.1,211.3,313.2,211.3,313.2,211.4z M313,212.2c0,0.1,0,0.1-0.1,0.1h-0.4v0.2h0.6c0.1,0,0.1,0,0.1,0.1c0,0.1,0,0.1-0.1,0.1h-0.7
		c-0.1,0-0.1,0-0.1-0.1v-0.4c0-0.1,0-0.1,0.1-0.1h0.5C312.9,212.1,313,212.2,313,212.2z"/>
	<path display="inline" d="M314.2,213.1c-0.1,0-0.1,0-0.1-0.1v-2.2c0-0.1,0-0.1,0.1-0.1c0.1,0,0.1,0,0.1,0.1v2.2
		C314.3,213,314.2,213.1,314.2,213.1z M314.6,213.1c-0.1,0-0.1,0-0.1-0.1v-2.2c0-0.1,0-0.1,0.1-0.1c0.1,0,0.1,0,0.1,0.1v2.2
		C314.7,213,314.7,213.1,314.6,213.1z"/>
	<path display="inline" d="M313.4,208.9c-0.1,0-0.1,0-0.1-0.1v-2.2c0-0.1,0-0.1,0.1-0.1c0.1,0,0.1,0,0.1,0.1v2.2
		C313.5,208.8,313.4,208.9,313.4,208.9z"/>
	<path display="inline" d="M314.6,207c0,0.1,0,0.1-0.1,0.1H314v0.2h0.4c0.1,0,0.1,0,0.1,0.1c0,0.1,0,0.1-0.1,0.1h-0.5
		c-0.1,0-0.1,0-0.1-0.1V207c0-0.1,0-0.1,0.1-0.1h0.7C314.6,206.9,314.6,207,314.6,207z"/>
	<path display="inline" d="M314.4,207.9c0,0.1,0,0.1-0.1,0.1H314v0.2h0.6c0.1,0,0.1,0,0.1,0.1c0,0.1,0,0.1-0.1,0.1h-0.7
		c-0.1,0-0.1,0-0.1-0.1v-0.4c0-0.1,0-0.1,0.1-0.1h0.5C314.4,207.8,314.4,207.8,314.4,207.9z"/>
	<path display="inline" d="M312.7,206.6c0-0.1,0-0.1,0.1-0.1c0.1,0,0.1,0,0.1,0.1v1.5c0,0.2-0.1,0.3-0.3,0.3h-0.4
		c-0.1,0-0.1,0-0.1-0.1c0-0.1,0-0.1,0.1-0.1h0.4c0.1,0,0.1,0,0.1-0.1V206.6z"/>
	<path display="inline" d="M312.9,208.8c0,0.1,0,0.1-0.1,0.1h-0.7c0,0-0.1,0-0.1-0.1c0-0.1,0-0.1,0.1-0.1h0.7
		C312.9,208.7,312.9,208.7,312.9,208.8z"/>
	<path display="inline" fill="#FFFFFF" d="M103.9,148.6c-0.8,0-1.4-0.6-1.4-1.4V119c0-0.8,0.6-1.4,1.4-1.4c0.8,0,1.4,0.6,1.4,1.4
		v28.2C105.3,148,104.7,148.6,103.9,148.6z"/>
	<path display="inline" fill="#FFFFFF" d="M120.3,124.7c0,0.8-0.6,1.4-1.4,1.4h-7.5v2.8h4.9c0.8,0,1.4,0.6,1.4,1.4
		c0,0.8-0.6,1.4-1.4,1.4h-6.3c-0.8,0-1.4-0.6-1.4-1.4v-5.6c0-0.8,0.6-1.4,1.4-1.4h8.9C119.6,123.3,120.3,123.9,120.3,124.7z"/>
	<path display="inline" fill="#FFFFFF" d="M117.6,135.9c0,0.8-0.6,1.4-1.4,1.4h-4.9v2.8h7.5c0.8,0,1.4,0.6,1.4,1.4
		c0,0.8-0.6,1.4-1.4,1.4h-8.9c-0.8,0-1.4-0.6-1.4-1.4v-5.6c0-0.8,0.6-1.4,1.4-1.4h6.3C117,134.5,117.6,135.2,117.6,135.9z"/>
	<path display="inline" fill="#FFFFFF" d="M95,119c0-0.8,0.6-1.4,1.4-1.4s1.4,0.6,1.4,1.4v19.7c0,2.4-1.9,4.2-4.3,4.2h-5
		c-0.8,0-1.4-0.6-1.4-1.4c0-0.8,0.6-1.4,1.4-1.4h5c0.8,0,1.5-0.5,1.5-1.4V119z"/>
	<path display="inline" fill="#FFFFFF" d="M97.8,147.2c0,0.8-0.5,1.4-1.1,1.4h-8.4c-0.6,0-1.1-0.6-1.1-1.4c0-0.8,0.5-1.4,1.1-1.4
		h8.4C97.3,145.8,97.8,146.4,97.8,147.2z"/>
	<path display="inline" fill="#FFFFFF" d="M201.2,180.3c-0.8,0-1.4-0.6-1.4-1.4v-28.2c0-0.8,0.6-1.4,1.4-1.4c0.8,0,1.4,0.6,1.4,1.4
		v28.2C202.6,179.7,202,180.3,201.2,180.3z"/>
	<path display="inline" fill="#FFFFFF" d="M175.5,199.1c0,0.8-0.6,1.4-1.4,1.4h-9.4v5.5h6.8c0.8,0,1.4,0.6,1.4,1.4
		c0,0.8-0.6,1.4-1.4,1.4h-8.2c-0.8,0-1.4-0.6-1.4-1.4v-8.3c0-0.8,0.6-1.4,1.4-1.4h10.8C174.9,197.7,175.5,198.3,175.5,199.1z"/>
	<path display="inline" fill="#FFFFFF" d="M172.9,213.1c0,0.8-0.6,1.4-1.4,1.4h-6.8v10.9h9.4c0.8,0,1.4,0.6,1.4,1.4
		c0,0.8-0.6,1.4-1.4,1.4h-10.8c-0.8,0-1.4-0.6-1.4-1.4v-13.8c0-0.8,0.6-1.4,1.4-1.4h8.2C172.3,211.7,172.9,212.3,172.9,213.1z"/>
	<path display="inline" fill="#FFFFFF" d="M156.5,198.9c0-0.8,0.6-1.4,1.4-1.4s1.4,0.6,1.4,1.4V224c0,2.4-1.9,4.2-4.3,4.2h-6.9
		c-0.8,0-1.4-0.6-1.4-1.4c0-0.8,0.6-1.4,1.4-1.4h6.9c0.8,0,1.5-0.5,1.5-1.4V198.9z"/>
	<line display="inline" fill="#FFFFFF" x1="163.2" y1="225.6" x2="173.6" y2="225.6"/>
</g>
</svg>
