<?xml version="1.0" encoding="utf-8"?>
<!-- Generator: Adobe Illustrator 18.0.0, SVG Export Plug-In . SVG Version: 6.00 Build 0)  -->
<!DOCTYPE svg PUBLIC "-//W3C//DTD SVG 1.1//EN" "http://www.w3.org/Graphics/SVG/1.1/DTD/svg11.dtd">
<svg version="1.1" id="Layer_1" xmlns="http://www.w3.org/2000/svg" xmlns:xlink="http://www.w3.org/1999/xlink" x="0px" y="0px"
	 viewBox="0 0 400 400" enable-background="new 0 0 400 400" xml:space="preserve">
<path fill="none" stroke="#000000" stroke-width="20" stroke-linecap="round" stroke-miterlimit="10" d="M147.9,61.2v166
	c0,20.9-5.6,30.8-26.1,30.8H87.3"/>
<path fill="none" stroke="#000000" stroke-width="20" stroke-linecap="round" stroke-miterlimit="10" d="M194.9,60.8v245.9"/>
<path fill="none" stroke="#000000" stroke-width="20" stroke-linecap="round" stroke-miterlimit="10" d="M87.3,306.7h60.6"/>
<path fill="none" stroke="#000000" stroke-width="20" stroke-linecap="round" stroke-miterlimit="10" d="M290.6,159.2
	c0,0-48.1,0.7-48.1-0.5c0-0.7,0-2,0-2s0-35.5,0-46.3c0-0.5,70.8,0,70.8,0"/>
<path fill="none" stroke="#000000" stroke-width="20" stroke-linecap="round" stroke-miterlimit="10" d="M313.5,304.5
	c0,0-71,0.9-71,0c0-20,0-75.4,0-95.8c0-0.5,48.2,0,48.2,0"/>
</svg>
